<mxfile host="app.diagrams.net" agent="Mozilla/5.0 (Windows NT 10.0; Win64; x64; rv:138.0) Gecko/20100101 Firefox/138.0" version="27.0.5" pages="3">
  <diagram name="Page-1" id="K6LvVUWZtZo4O9ytxagy">
    <mxGraphModel dx="1029" dy="585" grid="1" gridSize="10" guides="1" tooltips="1" connect="1" arrows="1" fold="1" page="1" pageScale="1" pageWidth="1100" pageHeight="850" math="0" shadow="0">
      <root>
        <mxCell id="0" />
        <mxCell id="1" parent="0" />
        <mxCell id="MWx7bWa3bGEuyPlrxJr7-3" value="" style="sketch=0;pointerEvents=1;shadow=0;dashed=0;html=1;strokeColor=none;fillColor=#505050;labelPosition=center;verticalLabelPosition=bottom;verticalAlign=top;outlineConnect=0;align=center;shape=mxgraph.office.concepts.folder;" vertex="1" parent="1">
          <mxGeometry x="280" y="80" width="40" height="40" as="geometry" />
        </mxCell>
        <mxCell id="MWx7bWa3bGEuyPlrxJr7-7" value="" style="sketch=0;pointerEvents=1;shadow=0;dashed=0;html=1;strokeColor=none;fillColor=#505050;labelPosition=center;verticalLabelPosition=bottom;verticalAlign=top;outlineConnect=0;align=center;shape=mxgraph.office.concepts.folder;" vertex="1" parent="1">
          <mxGeometry x="280" y="160" width="40" height="40" as="geometry" />
        </mxCell>
        <mxCell id="MWx7bWa3bGEuyPlrxJr7-8" value="" style="group" vertex="1" connectable="0" parent="1">
          <mxGeometry x="380" y="70" width="48.24" height="60" as="geometry" />
        </mxCell>
        <mxCell id="MWx7bWa3bGEuyPlrxJr7-4" value="" style="verticalLabelPosition=bottom;html=1;verticalAlign=top;strokeWidth=1;align=center;outlineConnect=0;dashed=0;outlineConnect=0;shape=mxgraph.aws3d.file;aspect=fixed;strokeColor=#292929;" vertex="1" parent="MWx7bWa3bGEuyPlrxJr7-8">
          <mxGeometry x="22.07" width="26.17" height="60" as="geometry" />
        </mxCell>
        <mxCell id="MWx7bWa3bGEuyPlrxJr7-5" value="" style="verticalLabelPosition=bottom;html=1;verticalAlign=top;strokeWidth=1;align=center;outlineConnect=0;dashed=0;outlineConnect=0;shape=mxgraph.aws3d.file;aspect=fixed;strokeColor=#292929;" vertex="1" parent="MWx7bWa3bGEuyPlrxJr7-8">
          <mxGeometry x="12.07" width="26.17" height="60" as="geometry" />
        </mxCell>
        <mxCell id="MWx7bWa3bGEuyPlrxJr7-6" value="" style="verticalLabelPosition=bottom;html=1;verticalAlign=top;strokeWidth=1;align=center;outlineConnect=0;dashed=0;outlineConnect=0;shape=mxgraph.aws3d.file;aspect=fixed;strokeColor=#292929;" vertex="1" parent="MWx7bWa3bGEuyPlrxJr7-8">
          <mxGeometry width="26.17" height="60" as="geometry" />
        </mxCell>
        <mxCell id="MWx7bWa3bGEuyPlrxJr7-9" value="" style="group" vertex="1" connectable="0" parent="1">
          <mxGeometry x="380" y="150" width="48.24" height="60" as="geometry" />
        </mxCell>
        <mxCell id="MWx7bWa3bGEuyPlrxJr7-10" value="" style="verticalLabelPosition=bottom;html=1;verticalAlign=top;strokeWidth=1;align=center;outlineConnect=0;dashed=0;outlineConnect=0;shape=mxgraph.aws3d.file;aspect=fixed;strokeColor=#292929;" vertex="1" parent="MWx7bWa3bGEuyPlrxJr7-9">
          <mxGeometry x="22.07" width="26.17" height="60" as="geometry" />
        </mxCell>
        <mxCell id="MWx7bWa3bGEuyPlrxJr7-11" value="" style="verticalLabelPosition=bottom;html=1;verticalAlign=top;strokeWidth=1;align=center;outlineConnect=0;dashed=0;outlineConnect=0;shape=mxgraph.aws3d.file;aspect=fixed;strokeColor=#292929;" vertex="1" parent="MWx7bWa3bGEuyPlrxJr7-9">
          <mxGeometry x="12.07" width="26.17" height="60" as="geometry" />
        </mxCell>
        <mxCell id="MWx7bWa3bGEuyPlrxJr7-12" value="" style="verticalLabelPosition=bottom;html=1;verticalAlign=top;strokeWidth=1;align=center;outlineConnect=0;dashed=0;outlineConnect=0;shape=mxgraph.aws3d.file;aspect=fixed;strokeColor=#292929;" vertex="1" parent="MWx7bWa3bGEuyPlrxJr7-9">
          <mxGeometry width="26.17" height="60" as="geometry" />
        </mxCell>
        <mxCell id="MWx7bWa3bGEuyPlrxJr7-13" value="" style="sketch=0;pointerEvents=1;shadow=0;dashed=0;html=1;strokeColor=none;fillColor=#505050;labelPosition=center;verticalLabelPosition=bottom;verticalAlign=top;outlineConnect=0;align=center;shape=mxgraph.office.concepts.folder;" vertex="1" parent="1">
          <mxGeometry x="280" y="240" width="40" height="40" as="geometry" />
        </mxCell>
        <mxCell id="MWx7bWa3bGEuyPlrxJr7-18" value="novels/" style="text;html=1;align=left;verticalAlign=middle;whiteSpace=wrap;rounded=0;fontFamily=Courier New;fontSize=13;" vertex="1" parent="1">
          <mxGeometry x="280" y="130" width="60" height="20" as="geometry" />
        </mxCell>
        <mxCell id="MWx7bWa3bGEuyPlrxJr7-19" value="shortStories/" style="text;html=1;align=left;verticalAlign=middle;whiteSpace=wrap;rounded=0;fontFamily=Courier New;fontSize=13;" vertex="1" parent="1">
          <mxGeometry x="280" y="209" width="80" height="20" as="geometry" />
        </mxCell>
        <mxCell id="MWx7bWa3bGEuyPlrxJr7-20" value="nonFiction/" style="text;html=1;align=left;verticalAlign=middle;whiteSpace=wrap;rounded=0;fontFamily=Courier New;fontSize=13;" vertex="1" parent="1">
          <mxGeometry x="280" y="290" width="80" height="20" as="geometry" />
        </mxCell>
        <mxCell id="MWx7bWa3bGEuyPlrxJr7-21" value="" style="sketch=0;pointerEvents=1;shadow=0;dashed=0;html=1;strokeColor=none;fillColor=#505050;labelPosition=center;verticalLabelPosition=bottom;verticalAlign=top;outlineConnect=0;align=center;shape=mxgraph.office.concepts.folder;" vertex="1" parent="1">
          <mxGeometry x="280" y="320" width="40" height="40" as="geometry" />
        </mxCell>
        <mxCell id="MWx7bWa3bGEuyPlrxJr7-22" value="" style="group" vertex="1" connectable="0" parent="1">
          <mxGeometry x="380" y="310" width="48.24" height="60" as="geometry" />
        </mxCell>
        <mxCell id="MWx7bWa3bGEuyPlrxJr7-23" value="" style="verticalLabelPosition=bottom;html=1;verticalAlign=top;strokeWidth=1;align=center;outlineConnect=0;dashed=0;outlineConnect=0;shape=mxgraph.aws3d.file;aspect=fixed;strokeColor=#292929;" vertex="1" parent="MWx7bWa3bGEuyPlrxJr7-22">
          <mxGeometry x="22.07" width="26.17" height="60" as="geometry" />
        </mxCell>
        <mxCell id="MWx7bWa3bGEuyPlrxJr7-24" value="" style="verticalLabelPosition=bottom;html=1;verticalAlign=top;strokeWidth=1;align=center;outlineConnect=0;dashed=0;outlineConnect=0;shape=mxgraph.aws3d.file;aspect=fixed;strokeColor=#292929;" vertex="1" parent="MWx7bWa3bGEuyPlrxJr7-22">
          <mxGeometry x="12.07" width="26.17" height="60" as="geometry" />
        </mxCell>
        <mxCell id="MWx7bWa3bGEuyPlrxJr7-25" value="" style="verticalLabelPosition=bottom;html=1;verticalAlign=top;strokeWidth=1;align=center;outlineConnect=0;dashed=0;outlineConnect=0;shape=mxgraph.aws3d.file;aspect=fixed;strokeColor=#292929;" vertex="1" parent="MWx7bWa3bGEuyPlrxJr7-22">
          <mxGeometry width="26.17" height="60" as="geometry" />
        </mxCell>
        <mxCell id="MWx7bWa3bGEuyPlrxJr7-26" value="biographies/" style="text;html=1;align=left;verticalAlign=middle;whiteSpace=wrap;rounded=0;fontFamily=Courier New;fontSize=13;" vertex="1" parent="1">
          <mxGeometry x="280" y="370" width="80" height="20" as="geometry" />
        </mxCell>
        <mxCell id="MWx7bWa3bGEuyPlrxJr7-28" value="&lt;div style=&quot;line-height: 100%;&quot;&gt;&lt;div&gt;&lt;ul&gt;&lt;li&gt;DoAndroidsDreamOfElectricSheep.md&lt;/li&gt;&lt;li&gt;UBIK.md&lt;/li&gt;&lt;li&gt;GalacticPotHealer.md&lt;/li&gt;&lt;li&gt;...&lt;/li&gt;&lt;/ul&gt;&lt;/div&gt;&lt;/div&gt;" style="text;html=1;align=left;verticalAlign=top;whiteSpace=wrap;rounded=0;spacingTop=-10;" vertex="1" parent="1">
          <mxGeometry x="410" y="70" width="150" height="60" as="geometry" />
        </mxCell>
        <mxCell id="MWx7bWa3bGEuyPlrxJr7-29" value="&lt;div style=&quot;line-height: 100%;&quot;&gt;&lt;div&gt;&lt;ul&gt;&lt;li&gt;DoAndroidsDreamOfElectricSheep.md&lt;/li&gt;&lt;li&gt;UBIK.md&lt;/li&gt;&lt;li&gt;GalacticPotHealer.md&lt;/li&gt;&lt;li&gt;...&lt;/li&gt;&lt;/ul&gt;&lt;/div&gt;&lt;/div&gt;" style="text;html=1;align=left;verticalAlign=top;whiteSpace=wrap;rounded=0;spacingTop=-10;" vertex="1" parent="1">
          <mxGeometry x="410" y="149" width="150" height="60" as="geometry" />
        </mxCell>
        <mxCell id="MWx7bWa3bGEuyPlrxJr7-31" value="&lt;div style=&quot;line-height: 100%;&quot;&gt;&lt;div&gt;&lt;ul&gt;&lt;li&gt;IAmAliveAndYouAreDead.md&lt;/li&gt;&lt;li&gt;DivineInvasions.md&lt;/li&gt;&lt;li&gt;TheSearchForPhilipKDick.md&lt;/li&gt;&lt;li&gt;...&lt;/li&gt;&lt;/ul&gt;&lt;/div&gt;&lt;/div&gt;" style="text;html=1;align=left;verticalAlign=top;whiteSpace=wrap;rounded=0;spacingTop=-10;" vertex="1" parent="1">
          <mxGeometry x="410" y="310" width="150" height="60" as="geometry" />
        </mxCell>
        <mxCell id="MWx7bWa3bGEuyPlrxJr7-32" value="&lt;div align=&quot;left&quot;&gt;---&lt;/div&gt;&lt;div align=&quot;left&quot;&gt;title: &quot;UBIK&quot;&lt;br&gt;author: &quot;Philip K. Dick&quot;&lt;br&gt;language: &quot;en&quot;&lt;br&gt;genre: &quot;Science-fiction&quot;&lt;br&gt;published: 1969&lt;/div&gt;&lt;div align=&quot;left&quot;&gt;written: 1966&lt;/div&gt;&lt;div align=&quot;left&quot;&gt;---&lt;/div&gt;&lt;div align=&quot;left&quot;&gt;Friends, this is clean-up time and we&#39;re discounting all our silent, electric Ubiks by this much money. Yes, we&#39;re throwing away the blue-book. And remember: every Ubik on our lot has been used only as directed.&lt;/div&gt;&lt;div&gt;&lt;br&gt;&lt;/div&gt;&lt;div&gt;&lt;br&gt;&lt;/div&gt;&lt;div&gt;...&lt;/div&gt;" style="whiteSpace=wrap;html=1;shape=mxgraph.basic.document;fillColor=none;align=left;verticalAlign=top;spacingTop=5;spacingLeft=5;" vertex="1" parent="1">
          <mxGeometry x="690" y="80" width="190" height="280" as="geometry" />
        </mxCell>
        <mxCell id="MWx7bWa3bGEuyPlrxJr7-15" value="" style="verticalLabelPosition=bottom;html=1;verticalAlign=top;strokeWidth=1;align=center;outlineConnect=0;dashed=0;outlineConnect=0;shape=mxgraph.aws3d.file;aspect=fixed;strokeColor=#292929;" vertex="1" parent="1">
          <mxGeometry x="402.07" y="229" width="26.17" height="60" as="geometry" />
        </mxCell>
        <mxCell id="MWx7bWa3bGEuyPlrxJr7-16" value="" style="verticalLabelPosition=bottom;html=1;verticalAlign=top;strokeWidth=1;align=center;outlineConnect=0;dashed=0;outlineConnect=0;shape=mxgraph.aws3d.file;aspect=fixed;strokeColor=#292929;" vertex="1" parent="1">
          <mxGeometry x="392.07" y="229" width="26.17" height="60" as="geometry" />
        </mxCell>
        <mxCell id="MWx7bWa3bGEuyPlrxJr7-17" value="" style="verticalLabelPosition=bottom;html=1;verticalAlign=top;strokeWidth=1;align=center;outlineConnect=0;dashed=0;outlineConnect=0;shape=mxgraph.aws3d.file;aspect=fixed;strokeColor=#292929;" vertex="1" parent="1">
          <mxGeometry x="380" y="229" width="26.17" height="60" as="geometry" />
        </mxCell>
        <mxCell id="MWx7bWa3bGEuyPlrxJr7-30" value="&lt;div style=&quot;line-height: 100%;&quot;&gt;&lt;div&gt;&lt;ul&gt;&lt;li&gt;TheExegesis.md&lt;/li&gt;&lt;li&gt;DarkHairedGirls.md&lt;/li&gt;&lt;li&gt;SelectedLetters01.md&lt;/li&gt;&lt;li&gt;...&lt;/li&gt;&lt;/ul&gt;&lt;/div&gt;&lt;/div&gt;" style="text;html=1;align=left;verticalAlign=top;whiteSpace=wrap;rounded=0;spacingTop=-10;" vertex="1" parent="1">
          <mxGeometry x="410" y="229" width="150" height="60" as="geometry" />
        </mxCell>
      </root>
    </mxGraphModel>
  </diagram>
  <diagram id="qmp9h1_nFrgHhE5195j-" name="Page-2">
    <mxGraphModel dx="1404" dy="798" grid="1" gridSize="10" guides="1" tooltips="1" connect="1" arrows="1" fold="1" page="1" pageScale="1" pageWidth="1100" pageHeight="850" math="0" shadow="0">
      <root>
        <mxCell id="0" />
        <mxCell id="1" parent="0" />
        <mxCell id="gYRT-Bnilw1rfVR4lcUQ-1" value="" style="sketch=0;pointerEvents=1;shadow=0;dashed=0;html=1;strokeColor=none;fillColor=#505050;labelPosition=center;verticalLabelPosition=bottom;verticalAlign=top;outlineConnect=0;align=center;shape=mxgraph.office.concepts.folder;" vertex="1" parent="1">
          <mxGeometry x="120" y="90" width="40" height="40" as="geometry" />
        </mxCell>
        <mxCell id="gYRT-Bnilw1rfVR4lcUQ-2" value="" style="sketch=0;pointerEvents=1;shadow=0;dashed=0;html=1;strokeColor=none;fillColor=#505050;labelPosition=center;verticalLabelPosition=bottom;verticalAlign=top;outlineConnect=0;align=center;shape=mxgraph.office.concepts.folder;" vertex="1" parent="1">
          <mxGeometry x="120" y="170" width="40" height="40" as="geometry" />
        </mxCell>
        <mxCell id="gYRT-Bnilw1rfVR4lcUQ-7" value="" style="group" vertex="1" connectable="0" parent="1">
          <mxGeometry x="220" y="160" width="48.24" height="60" as="geometry" />
        </mxCell>
        <mxCell id="gYRT-Bnilw1rfVR4lcUQ-8" value="" style="verticalLabelPosition=bottom;html=1;verticalAlign=top;strokeWidth=1;align=center;outlineConnect=0;dashed=0;outlineConnect=0;shape=mxgraph.aws3d.file;aspect=fixed;strokeColor=#292929;" vertex="1" parent="gYRT-Bnilw1rfVR4lcUQ-7">
          <mxGeometry x="22.07" width="26.17" height="60" as="geometry" />
        </mxCell>
        <mxCell id="gYRT-Bnilw1rfVR4lcUQ-9" value="" style="verticalLabelPosition=bottom;html=1;verticalAlign=top;strokeWidth=1;align=center;outlineConnect=0;dashed=0;outlineConnect=0;shape=mxgraph.aws3d.file;aspect=fixed;strokeColor=#292929;" vertex="1" parent="gYRT-Bnilw1rfVR4lcUQ-7">
          <mxGeometry x="12.07" width="26.17" height="60" as="geometry" />
        </mxCell>
        <mxCell id="gYRT-Bnilw1rfVR4lcUQ-10" value="" style="verticalLabelPosition=bottom;html=1;verticalAlign=top;strokeWidth=1;align=center;outlineConnect=0;dashed=0;outlineConnect=0;shape=mxgraph.aws3d.file;aspect=fixed;strokeColor=#292929;" vertex="1" parent="gYRT-Bnilw1rfVR4lcUQ-7">
          <mxGeometry width="26.17" height="60" as="geometry" />
        </mxCell>
        <mxCell id="gYRT-Bnilw1rfVR4lcUQ-11" value="" style="sketch=0;pointerEvents=1;shadow=0;dashed=0;html=1;strokeColor=none;fillColor=#505050;labelPosition=center;verticalLabelPosition=bottom;verticalAlign=top;outlineConnect=0;align=center;shape=mxgraph.office.concepts.folder;" vertex="1" parent="1">
          <mxGeometry x="120" y="250" width="40" height="40" as="geometry" />
        </mxCell>
        <mxCell id="gYRT-Bnilw1rfVR4lcUQ-12" value="novels/" style="text;html=1;align=left;verticalAlign=middle;whiteSpace=wrap;rounded=0;fontFamily=Courier New;fontSize=13;" vertex="1" parent="1">
          <mxGeometry x="120" y="140" width="60" height="20" as="geometry" />
        </mxCell>
        <mxCell id="gYRT-Bnilw1rfVR4lcUQ-13" value="shortStories/" style="text;html=1;align=left;verticalAlign=middle;whiteSpace=wrap;rounded=0;fontFamily=Courier New;fontSize=13;" vertex="1" parent="1">
          <mxGeometry x="120" y="219" width="80" height="20" as="geometry" />
        </mxCell>
        <mxCell id="gYRT-Bnilw1rfVR4lcUQ-14" value="nonFiction/" style="text;html=1;align=left;verticalAlign=middle;whiteSpace=wrap;rounded=0;fontFamily=Courier New;fontSize=13;" vertex="1" parent="1">
          <mxGeometry x="120" y="300" width="80" height="20" as="geometry" />
        </mxCell>
        <mxCell id="gYRT-Bnilw1rfVR4lcUQ-15" value="" style="sketch=0;pointerEvents=1;shadow=0;dashed=0;html=1;strokeColor=none;fillColor=#505050;labelPosition=center;verticalLabelPosition=bottom;verticalAlign=top;outlineConnect=0;align=center;shape=mxgraph.office.concepts.folder;" vertex="1" parent="1">
          <mxGeometry x="120" y="330" width="40" height="40" as="geometry" />
        </mxCell>
        <mxCell id="gYRT-Bnilw1rfVR4lcUQ-16" value="" style="group" vertex="1" connectable="0" parent="1">
          <mxGeometry x="220" y="320" width="48.24" height="60" as="geometry" />
        </mxCell>
        <mxCell id="gYRT-Bnilw1rfVR4lcUQ-17" value="" style="verticalLabelPosition=bottom;html=1;verticalAlign=top;strokeWidth=1;align=center;outlineConnect=0;dashed=0;outlineConnect=0;shape=mxgraph.aws3d.file;aspect=fixed;strokeColor=#292929;" vertex="1" parent="gYRT-Bnilw1rfVR4lcUQ-16">
          <mxGeometry x="22.07" width="26.17" height="60" as="geometry" />
        </mxCell>
        <mxCell id="gYRT-Bnilw1rfVR4lcUQ-18" value="" style="verticalLabelPosition=bottom;html=1;verticalAlign=top;strokeWidth=1;align=center;outlineConnect=0;dashed=0;outlineConnect=0;shape=mxgraph.aws3d.file;aspect=fixed;strokeColor=#292929;" vertex="1" parent="gYRT-Bnilw1rfVR4lcUQ-16">
          <mxGeometry x="12.07" width="26.17" height="60" as="geometry" />
        </mxCell>
        <mxCell id="gYRT-Bnilw1rfVR4lcUQ-19" value="" style="verticalLabelPosition=bottom;html=1;verticalAlign=top;strokeWidth=1;align=center;outlineConnect=0;dashed=0;outlineConnect=0;shape=mxgraph.aws3d.file;aspect=fixed;strokeColor=#292929;" vertex="1" parent="gYRT-Bnilw1rfVR4lcUQ-16">
          <mxGeometry width="26.17" height="60" as="geometry" />
        </mxCell>
        <mxCell id="gYRT-Bnilw1rfVR4lcUQ-20" value="biographies/" style="text;html=1;align=left;verticalAlign=middle;whiteSpace=wrap;rounded=0;fontFamily=Courier New;fontSize=13;" vertex="1" parent="1">
          <mxGeometry x="120" y="380" width="80" height="20" as="geometry" />
        </mxCell>
        <mxCell id="gYRT-Bnilw1rfVR4lcUQ-31" style="edgeStyle=orthogonalEdgeStyle;rounded=0;orthogonalLoop=1;jettySize=auto;html=1;exitX=0;exitY=0.5;exitDx=0;exitDy=0;endArrow=none;startFill=0;" edge="1" parent="1" source="gYRT-Bnilw1rfVR4lcUQ-29" target="gYRT-Bnilw1rfVR4lcUQ-25">
          <mxGeometry relative="1" as="geometry">
            <Array as="points">
              <mxPoint x="310" y="240" />
              <mxPoint x="310" y="269" />
            </Array>
          </mxGeometry>
        </mxCell>
        <mxCell id="gYRT-Bnilw1rfVR4lcUQ-32" style="edgeStyle=orthogonalEdgeStyle;rounded=0;orthogonalLoop=1;jettySize=auto;html=1;exitX=0;exitY=0.5;exitDx=0;exitDy=0;endArrow=none;startFill=0;" edge="1" parent="1" source="gYRT-Bnilw1rfVR4lcUQ-29" target="gYRT-Bnilw1rfVR4lcUQ-8">
          <mxGeometry relative="1" as="geometry">
            <Array as="points">
              <mxPoint x="310" y="240" />
              <mxPoint x="310" y="190" />
            </Array>
          </mxGeometry>
        </mxCell>
        <mxCell id="gYRT-Bnilw1rfVR4lcUQ-29" value="&lt;font style=&quot;font-size: 17px;&quot;&gt;SpaCY&lt;/font&gt;" style="shape=step;perimeter=stepPerimeter;whiteSpace=wrap;html=1;fixedSize=1;" vertex="1" parent="1">
          <mxGeometry x="360" y="200" width="120" height="80" as="geometry" />
        </mxCell>
        <mxCell id="gYRT-Bnilw1rfVR4lcUQ-30" value="" style="group" vertex="1" connectable="0" parent="1">
          <mxGeometry x="220" y="239" width="48.23999999999995" height="60" as="geometry" />
        </mxCell>
        <mxCell id="gYRT-Bnilw1rfVR4lcUQ-25" value="" style="verticalLabelPosition=bottom;html=1;verticalAlign=top;strokeWidth=1;align=center;outlineConnect=0;dashed=0;outlineConnect=0;shape=mxgraph.aws3d.file;aspect=fixed;strokeColor=#292929;" vertex="1" parent="gYRT-Bnilw1rfVR4lcUQ-30">
          <mxGeometry x="22.069999999999936" width="26.17" height="60" as="geometry" />
        </mxCell>
        <mxCell id="gYRT-Bnilw1rfVR4lcUQ-26" value="" style="verticalLabelPosition=bottom;html=1;verticalAlign=top;strokeWidth=1;align=center;outlineConnect=0;dashed=0;outlineConnect=0;shape=mxgraph.aws3d.file;aspect=fixed;strokeColor=#292929;" vertex="1" parent="gYRT-Bnilw1rfVR4lcUQ-30">
          <mxGeometry x="12.069999999999936" width="26.17" height="60" as="geometry" />
        </mxCell>
        <mxCell id="gYRT-Bnilw1rfVR4lcUQ-27" value="" style="verticalLabelPosition=bottom;html=1;verticalAlign=top;strokeWidth=1;align=center;outlineConnect=0;dashed=0;outlineConnect=0;shape=mxgraph.aws3d.file;aspect=fixed;strokeColor=#292929;" vertex="1" parent="gYRT-Bnilw1rfVR4lcUQ-30">
          <mxGeometry width="26.17" height="60" as="geometry" />
        </mxCell>
        <mxCell id="gYRT-Bnilw1rfVR4lcUQ-34" value="" style="group" vertex="1" connectable="0" parent="1">
          <mxGeometry x="220" y="80" width="48.24" height="60" as="geometry" />
        </mxCell>
        <mxCell id="gYRT-Bnilw1rfVR4lcUQ-35" value="" style="verticalLabelPosition=bottom;html=1;verticalAlign=top;strokeWidth=1;align=center;outlineConnect=0;dashed=0;outlineConnect=0;shape=mxgraph.aws3d.file;aspect=fixed;strokeColor=#292929;" vertex="1" parent="gYRT-Bnilw1rfVR4lcUQ-34">
          <mxGeometry x="22.07" width="26.17" height="60" as="geometry" />
        </mxCell>
        <mxCell id="gYRT-Bnilw1rfVR4lcUQ-36" value="" style="verticalLabelPosition=bottom;html=1;verticalAlign=top;strokeWidth=1;align=center;outlineConnect=0;dashed=0;outlineConnect=0;shape=mxgraph.aws3d.file;aspect=fixed;strokeColor=#292929;" vertex="1" parent="gYRT-Bnilw1rfVR4lcUQ-34">
          <mxGeometry x="12.07" width="26.17" height="60" as="geometry" />
        </mxCell>
        <mxCell id="gYRT-Bnilw1rfVR4lcUQ-37" value="" style="verticalLabelPosition=bottom;html=1;verticalAlign=top;strokeWidth=1;align=center;outlineConnect=0;dashed=0;outlineConnect=0;shape=mxgraph.aws3d.file;aspect=fixed;strokeColor=#292929;" vertex="1" parent="gYRT-Bnilw1rfVR4lcUQ-34">
          <mxGeometry width="26.17" height="60" as="geometry" />
        </mxCell>
        <mxCell id="gYRT-Bnilw1rfVR4lcUQ-39" value="" style="endArrow=classic;html=1;rounded=0;entryX=0;entryY=0.5;entryDx=0;entryDy=0;edgeStyle=orthogonalEdgeStyle;" edge="1" parent="1" source="gYRT-Bnilw1rfVR4lcUQ-35" target="gYRT-Bnilw1rfVR4lcUQ-29">
          <mxGeometry width="50" height="50" relative="1" as="geometry">
            <mxPoint x="290" y="160" as="sourcePoint" />
            <mxPoint x="340" y="110" as="targetPoint" />
            <Array as="points">
              <mxPoint x="310" y="110" />
              <mxPoint x="310" y="240" />
            </Array>
          </mxGeometry>
        </mxCell>
        <mxCell id="gYRT-Bnilw1rfVR4lcUQ-41" value="" style="endArrow=none;html=1;rounded=0;entryX=0;entryY=0.5;entryDx=0;entryDy=0;edgeStyle=orthogonalEdgeStyle;" edge="1" parent="1" source="gYRT-Bnilw1rfVR4lcUQ-17" target="gYRT-Bnilw1rfVR4lcUQ-29">
          <mxGeometry width="50" height="50" relative="1" as="geometry">
            <mxPoint x="270" y="350" as="sourcePoint" />
            <mxPoint x="340" y="270" as="targetPoint" />
            <Array as="points">
              <mxPoint x="310" y="350" />
              <mxPoint x="310" y="240" />
            </Array>
          </mxGeometry>
        </mxCell>
        <mxCell id="gYRT-Bnilw1rfVR4lcUQ-42" value="&lt;div align=&quot;left&quot;&gt;&quot;Kathy&quot;: {&lt;br&gt;&amp;nbsp;&amp;nbsp;&amp;nbsp;&amp;nbsp;&amp;nbsp;&amp;nbsp;&amp;nbsp; &quot;sources&quot;: [&lt;br&gt;&amp;nbsp;&amp;nbsp;&amp;nbsp;&amp;nbsp;&amp;nbsp;&amp;nbsp;&amp;nbsp;&amp;nbsp;&amp;nbsp;&amp;nbsp;&amp;nbsp; &quot;AScannerDarkly.md&quot;,&lt;br&gt;&amp;nbsp;&amp;nbsp;&amp;nbsp;&amp;nbsp;&amp;nbsp;&amp;nbsp;&amp;nbsp;&amp;nbsp;&amp;nbsp;&amp;nbsp;&amp;nbsp; &quot;NowWaitForLastYear.md&quot;,&lt;br&gt;&amp;nbsp;&amp;nbsp;&amp;nbsp;&amp;nbsp;&amp;nbsp;&amp;nbsp;&amp;nbsp;&amp;nbsp;&amp;nbsp;&amp;nbsp;&amp;nbsp; &quot;PutteringAboutInASmallLand.md&quot;,&lt;br&gt;&amp;nbsp;&amp;nbsp;&amp;nbsp;&amp;nbsp;&amp;nbsp;&amp;nbsp;&amp;nbsp;&amp;nbsp;&amp;nbsp;&amp;nbsp;&amp;nbsp; &quot;FlowMyTearsThePolicemanSaid.md&quot;,&lt;br&gt;&amp;nbsp;&amp;nbsp;&amp;nbsp;&amp;nbsp;&amp;nbsp;&amp;nbsp;&amp;nbsp;&amp;nbsp;&amp;nbsp;&amp;nbsp;&amp;nbsp; &quot;OhToBeSBlobel.md&quot;,&lt;br&gt;&amp;nbsp;&amp;nbsp;&amp;nbsp;&amp;nbsp;&amp;nbsp;&amp;nbsp;&amp;nbsp;&amp;nbsp;&amp;nbsp;&amp;nbsp;&amp;nbsp; &quot;WhatTheDeadMenSay.md&quot;&lt;br&gt;&amp;nbsp;&amp;nbsp;&amp;nbsp;&amp;nbsp;&amp;nbsp;&amp;nbsp;&amp;nbsp; ],&lt;br&gt;&amp;nbsp;&amp;nbsp;&amp;nbsp;&amp;nbsp;&amp;nbsp;&amp;nbsp;&amp;nbsp; &quot;counts&quot;: {&lt;br&gt;&amp;nbsp;&amp;nbsp;&amp;nbsp;&amp;nbsp;&amp;nbsp;&amp;nbsp;&amp;nbsp;&amp;nbsp;&amp;nbsp;&amp;nbsp;&amp;nbsp; &quot;AScannerDarkly.md&quot;: 1,&lt;br&gt;&amp;nbsp;&amp;nbsp;&amp;nbsp;&amp;nbsp;&amp;nbsp;&amp;nbsp;&amp;nbsp;&amp;nbsp;&amp;nbsp;&amp;nbsp;&amp;nbsp; &quot;NowWaitForLastYear.md&quot;: 192,&lt;br&gt;&amp;nbsp;&amp;nbsp;&amp;nbsp;&amp;nbsp;&amp;nbsp;&amp;nbsp;&amp;nbsp;&amp;nbsp;&amp;nbsp;&amp;nbsp;&amp;nbsp; &quot;PutteringAboutInASmallLand.md&quot;: 1,&lt;br&gt;&amp;nbsp;&amp;nbsp;&amp;nbsp;&amp;nbsp;&amp;nbsp;&amp;nbsp;&amp;nbsp;&amp;nbsp;&amp;nbsp;&amp;nbsp;&amp;nbsp; &quot;FlowMyTearsThePolicemanSaid.md&quot;: 127,&lt;br&gt;&amp;nbsp;&amp;nbsp;&amp;nbsp;&amp;nbsp;&amp;nbsp;&amp;nbsp;&amp;nbsp;&amp;nbsp;&amp;nbsp;&amp;nbsp;&amp;nbsp; &quot;OhToBeSBlobel.md&quot;: 1,&lt;br&gt;&amp;nbsp;&amp;nbsp;&amp;nbsp;&amp;nbsp;&amp;nbsp;&amp;nbsp;&amp;nbsp;&amp;nbsp;&amp;nbsp;&amp;nbsp;&amp;nbsp; &quot;WhatTheDeadMenSay.md&quot;: 88&lt;br&gt;&amp;nbsp;&amp;nbsp;&amp;nbsp;&amp;nbsp;&amp;nbsp;&amp;nbsp;&amp;nbsp; },&lt;br&gt;&amp;nbsp;&amp;nbsp;&amp;nbsp;&amp;nbsp;&amp;nbsp;&amp;nbsp;&amp;nbsp; &quot;value&quot;: 410,&lt;br&gt;&amp;nbsp;&amp;nbsp;&amp;nbsp;&amp;nbsp;&amp;nbsp;&amp;nbsp;&amp;nbsp; &quot;type&quot;: &quot;PERSON&quot;,&lt;br&gt;&amp;nbsp;&amp;nbsp;&amp;nbsp;&amp;nbsp;&amp;nbsp;&amp;nbsp;&amp;nbsp; &quot;meets_criteria&quot;: true&lt;br&gt;&lt;/div&gt;&lt;div align=&quot;left&quot;&gt;&amp;nbsp;&amp;nbsp;&amp;nbsp; },&lt;/div&gt;&lt;div align=&quot;left&quot;&gt;...&lt;/div&gt;" style="whiteSpace=wrap;html=1;shape=mxgraph.basic.document;fillColor=none;align=left;fontFamily=Courier New;" vertex="1" parent="1">
          <mxGeometry x="550" y="80" width="380" height="340" as="geometry" />
        </mxCell>
        <mxCell id="gYRT-Bnilw1rfVR4lcUQ-43" value="dictionary.json" style="text;html=1;align=center;verticalAlign=middle;whiteSpace=wrap;rounded=0;fontSize=13;fontFamily=Courier New;" vertex="1" parent="1">
          <mxGeometry x="645" y="430" width="190" height="30" as="geometry" />
        </mxCell>
        <mxCell id="gYRT-Bnilw1rfVR4lcUQ-44" style="edgeStyle=orthogonalEdgeStyle;rounded=0;orthogonalLoop=1;jettySize=auto;html=1;exitX=1;exitY=0.5;exitDx=0;exitDy=0;" edge="1" parent="1" source="gYRT-Bnilw1rfVR4lcUQ-29">
          <mxGeometry relative="1" as="geometry">
            <mxPoint x="550" y="240" as="targetPoint" />
          </mxGeometry>
        </mxCell>
      </root>
    </mxGraphModel>
  </diagram>
  <diagram id="vTXfNkPGQm494LcHN1eZ" name="Page-3">
    <mxGraphModel dx="1287" dy="732" grid="1" gridSize="10" guides="1" tooltips="1" connect="1" arrows="1" fold="1" page="1" pageScale="1" pageWidth="1100" pageHeight="850" math="0" shadow="0">
      <root>
        <mxCell id="0" />
        <mxCell id="1" parent="0" />
        <mxCell id="AWrpxqLGyIykluTVyPUD-14" value="" style="rounded=0;whiteSpace=wrap;html=1;fillColor=none;" vertex="1" parent="1">
          <mxGeometry x="40" y="10" width="1010" height="700" as="geometry" />
        </mxCell>
        <mxCell id="AWrpxqLGyIykluTVyPUD-4" style="edgeStyle=orthogonalEdgeStyle;rounded=0;orthogonalLoop=1;jettySize=auto;html=1;exitX=1;exitY=0.5;exitDx=0;exitDy=0;exitPerimeter=0;entryX=0;entryY=0.5;entryDx=0;entryDy=0;" edge="1" parent="1" source="AWrpxqLGyIykluTVyPUD-1" target="AWrpxqLGyIykluTVyPUD-3">
          <mxGeometry relative="1" as="geometry" />
        </mxCell>
        <mxCell id="AWrpxqLGyIykluTVyPUD-1" value="&lt;div align=&quot;left&quot;&gt;---&lt;/div&gt;&lt;div align=&quot;left&quot;&gt;title: &quot;Do Androids Dream of Electric Sheep&quot;&lt;br&gt;author: &quot;Philip K. Dick&quot;&lt;br&gt;language: &quot;en&quot;&lt;br&gt;genre: &quot;Science-fiction&quot;&lt;br&gt;published: 1968&lt;/div&gt;&lt;div align=&quot;left&quot;&gt;written: 1966&lt;/div&gt;&lt;div align=&quot;left&quot;&gt;---&lt;/div&gt;&lt;div align=&quot;left&quot;&gt;A merry little surge of electricity piped by automatic alarm from the mood organ beside his bed awakened Rick Deckard. Surprised—it always surprised him to find himself awake without prior notice—he rose from the bed, stood up in his multicolored pajamas, and stretched. Now, in her bed, his wife Iran opened her gray, unmerry eyes, blinked, then groaned and shut her eyes again.&lt;/div&gt;&lt;div align=&quot;left&quot;&gt;&lt;br&gt;&lt;/div&gt;&lt;div&gt;...&lt;/div&gt;" style="whiteSpace=wrap;html=1;shape=mxgraph.basic.document;fillColor=none;align=left;verticalAlign=top;spacingTop=5;spacingLeft=5;spacingRight=5;fontSize=14;" vertex="1" parent="1">
          <mxGeometry x="70" y="40" width="330" height="340" as="geometry" />
        </mxCell>
        <mxCell id="AWrpxqLGyIykluTVyPUD-2" value="&lt;div align=&quot;left&quot;&gt;---&lt;/div&gt;&lt;div align=&quot;left&quot;&gt;title: &quot;Do Androids Dream of Electric Sheep&quot;&lt;br&gt;author: &quot;Philip K. Dick&quot;&lt;br&gt;language: &quot;en&quot;&lt;br&gt;genre: &quot;Science-fiction&quot;&lt;br&gt;published: 1968&lt;/div&gt;&lt;div align=&quot;left&quot;&gt;written: 1966&lt;/div&gt;&lt;div align=&quot;left&quot;&gt;---&lt;/div&gt;&lt;div align=&quot;left&quot;&gt;A merry little surge of electricity piped by automatic alarm from the mood organ beside his bed awakened [[Entity/Rick Deckard]]. Surprised—it always surprised him to find himself awake without prior notice—he rose from the bed, stood up in his multicolored pajamas, and stretched. Now, in her bed, his wife [[Entity/Iran]] opened her gray, unmerry eyes, blinked, then groaned and shut her eyes again.&lt;/div&gt;&lt;div align=&quot;left&quot;&gt;&lt;br&gt;&lt;/div&gt;&lt;div&gt;...&lt;/div&gt;" style="whiteSpace=wrap;html=1;shape=mxgraph.basic.document;fillColor=none;align=left;verticalAlign=top;spacingTop=5;spacingLeft=5;spacingRight=5;fontSize=14;" vertex="1" parent="1">
          <mxGeometry x="680" y="40" width="330" height="340" as="geometry" />
        </mxCell>
        <mxCell id="AWrpxqLGyIykluTVyPUD-10" style="edgeStyle=orthogonalEdgeStyle;rounded=0;orthogonalLoop=1;jettySize=auto;html=1;exitX=0.25;exitY=1;exitDx=0;exitDy=0;entryX=0;entryY=0.5;entryDx=0;entryDy=0;" edge="1" parent="1" source="AWrpxqLGyIykluTVyPUD-3" target="AWrpxqLGyIykluTVyPUD-8">
          <mxGeometry relative="1" as="geometry" />
        </mxCell>
        <mxCell id="AWrpxqLGyIykluTVyPUD-11" style="edgeStyle=orthogonalEdgeStyle;rounded=0;orthogonalLoop=1;jettySize=auto;html=1;exitX=0.25;exitY=1;exitDx=0;exitDy=0;entryX=0;entryY=0.5;entryDx=0;entryDy=0;" edge="1" parent="1" source="AWrpxqLGyIykluTVyPUD-3" target="AWrpxqLGyIykluTVyPUD-7">
          <mxGeometry relative="1" as="geometry" />
        </mxCell>
        <mxCell id="AWrpxqLGyIykluTVyPUD-3" value="&lt;font style=&quot;font-size: 21px;&quot;&gt;Dictionary.json&lt;/font&gt;" style="rounded=1;whiteSpace=wrap;html=1;fillColor=none;" vertex="1" parent="1">
          <mxGeometry x="460" y="179" width="160" height="60" as="geometry" />
        </mxCell>
        <mxCell id="AWrpxqLGyIykluTVyPUD-5" style="edgeStyle=orthogonalEdgeStyle;rounded=0;orthogonalLoop=1;jettySize=auto;html=1;exitX=1;exitY=0.5;exitDx=0;exitDy=0;entryX=0;entryY=0.5;entryDx=0;entryDy=0;entryPerimeter=0;" edge="1" parent="1" source="AWrpxqLGyIykluTVyPUD-3" target="AWrpxqLGyIykluTVyPUD-2">
          <mxGeometry relative="1" as="geometry" />
        </mxCell>
        <mxCell id="AWrpxqLGyIykluTVyPUD-7" value="&lt;div align=&quot;left&quot;&gt;Iran&lt;/div&gt;" style="text;html=1;align=left;verticalAlign=middle;whiteSpace=wrap;rounded=0;fontSize=14;" vertex="1" parent="1">
          <mxGeometry x="550" y="284" width="60" height="30" as="geometry" />
        </mxCell>
        <mxCell id="AWrpxqLGyIykluTVyPUD-8" value="Rick Deckard" style="text;html=1;align=left;verticalAlign=middle;whiteSpace=wrap;rounded=0;fontSize=14;" vertex="1" parent="1">
          <mxGeometry x="550" y="254" width="140" height="30" as="geometry" />
        </mxCell>
        <mxCell id="AWrpxqLGyIykluTVyPUD-12" value="# Rick Deckard&lt;br&gt;&lt;br&gt;**Type:** PERSON&lt;br&gt;&lt;br&gt;**Total occurrences:** 22&lt;br&gt;&lt;br&gt;## Sources&lt;br&gt;&lt;br&gt;- [[novels/Dick, Philip K - Do Androids Dream of Electric Sheep.md|Dick, Philip K - Do Androids Dream of Electric Sheep.md]]: 22 occurrences&lt;div&gt;&lt;br&gt;&lt;/div&gt;" style="whiteSpace=wrap;html=1;shape=mxgraph.basic.document;fillColor=none;align=left;verticalAlign=top;spacingTop=5;spacingLeft=5;fontSize=14;" vertex="1" parent="1">
          <mxGeometry x="70" y="410" width="430" height="270" as="geometry" />
        </mxCell>
        <mxCell id="AWrpxqLGyIykluTVyPUD-13" value="# Iran&lt;br&gt;&lt;br&gt;**Type:** GPE&lt;br&gt;&lt;br&gt;**Total occurrences:** 55&lt;br&gt;&lt;br&gt;## Sources&lt;br&gt;&lt;br&gt;- [[novels/Dick, Philip K - Do Androids Dream of Electric Sheep.md|Dick, Philip K - Do Androids Dream of Electric Sheep.md]]: 53 occurrences&lt;br&gt;- [[novels/Dick, Philip K - Voices from the Street.md|Dick, Philip K - Voices from the Street.md]]: 1 occurrences&lt;br&gt;- [[shortStories/Breakfast at Twilight.md|Breakfast at Twilight.md]]: 1 occurrences&lt;br&gt;&lt;div&gt;&lt;br&gt;&lt;/div&gt;" style="whiteSpace=wrap;html=1;shape=mxgraph.basic.document;fillColor=none;align=left;verticalAlign=top;spacingTop=5;spacingLeft=5;fontSize=14;" vertex="1" parent="1">
          <mxGeometry x="580" y="410" width="430" height="270" as="geometry" />
        </mxCell>
      </root>
    </mxGraphModel>
  </diagram>
</mxfile>
